<?xml version="1.0" encoding="UTF-8"?>
<svg width="80px" height="24px" viewBox="0 0 80 24" version="1.1" xmlns="http://www.w3.org/2000/svg" xmlns:xlink="http://www.w3.org/1999/xlink">
    <title>elrond-logo-black</title>
    <defs>
        <filter id="filter-1">
            <feColorMatrix in="SourceGraphic" type="matrix" values="0 0 0 0 1.000000 0 0 0 0 1.000000 0 0 0 0 1.000000 0 0 0 1.000000 0"></feColorMatrix>
        </filter>
        <path d="M1.1892,0.2612 C1.2836,0.3496 1.3308,0.46 1.3308,0.5752 C1.3308,0.6856 1.2836,0.8008 1.1892,0.8892 C1.0992,0.9732 0.9768,1.0172 0.8584,1.0172 C0.736,1.0172 0.6128,0.9732 0.5232,0.8892 C0.4332,0.8008 0.3864,0.6856 0.3864,0.5752 C0.3864,0.46 0.4332,0.3496 0.5232,0.2612 C0.7076,0.0888 1.0048,0.0888 1.1892,0.2612 Z" id="path-2"></path>
        <path d="M0.7628,0.3008 C0.8472,0.3896 0.8912,0.5 0.8912,0.6148 C0.8912,0.7252 0.8472,0.8404 0.7628,0.9288 C0.6744,1.0132 0.5636,1.0568 0.4484,1.0568 C0.3336,1.0568 0.2228,1.0132 0.134,0.9288 C0.05,0.8404 0.0056,0.7252 0.0056,0.6148 C0.0056,0.5 0.05,0.3896 0.134,0.3008 C0.3068,0.1284 0.5904,0.1284 0.7628,0.3008 Z" id="path-4"></path>
        <path d="M1.064,0.3404 C1.1484,0.4248 1.1924,0.5396 1.1924,0.6544 C1.1924,0.7648 1.1484,0.8796 1.064,0.964 C0.9756,1.0528 0.8648,1.0964 0.75,1.0964 C0.6348,1.0964 0.5244,1.0528 0.4356,0.964 C0.3512,0.8796 0.3072,0.7648 0.3072,0.6544 C0.3072,0.5396 0.3512,0.4248 0.4356,0.3404 C0.608,0.168 0.8916,0.168 1.064,0.3404 Z" id="path-6"></path>
        <path d="M1.0748,0.3808 C1.1648,0.4656 1.212,0.5808 1.212,0.692 C1.212,0.8076 1.1648,0.9228 1.0748,1.0076 C0.9804,1.0964 0.8624,1.1364 0.7396,1.1364 C0.6216,1.1364 0.4988,1.0964 0.4044,1.0076 C0.3148,0.9228 0.2676,0.8076 0.2676,0.692 C0.2676,0.5808 0.3148,0.4656 0.4044,0.3808 C0.5884,0.2076 0.8908,0.2076 1.0748,0.3808 Z" id="path-8"></path>
        <path d="M1.044,0.4236 C1.1324,0.5072 1.1724,0.6224 1.1724,0.7332 C1.1724,0.8484 1.1324,0.9632 1.044,1.0476 C0.96,1.1364 0.8444,1.176 0.7296,1.176 C0.6188,1.176 0.504,1.1364 0.4196,1.0476 C0.3316,0.9632 0.2868,0.8484 0.2868,0.7332 C0.2868,0.6224 0.3316,0.5072 0.4196,0.4236 C0.588,0.246 0.8712,0.246 1.044,0.4236 Z" id="path-10"></path>
        <path d="M0.9452,0.4596 C1.0336,0.5476 1.0736,0.6628 1.0736,0.7736 C1.0736,0.8884 1.0336,0.9988 0.9452,1.0872 C0.8612,1.1712 0.7464,1.2156 0.6308,1.2156 C0.5204,1.2156 0.4052,1.1712 0.3208,1.0872 C0.2328,0.9988 0.1884,0.8884 0.1884,0.7736 C0.1884,0.6628 0.2328,0.5476 0.3208,0.4596 C0.494,0.2872 0.7728,0.2872 0.9452,0.4596 Z" id="path-12"></path>
        <path d="M0.92,0.4792 C1.0088,0.568 1.0532,0.6784 1.0532,0.7936 C1.0532,0.9044 1.0088,1.0192 0.92,1.1032 C0.8364,1.1916 0.7212,1.2356 0.6104,1.2356 C0.4952,1.2356 0.3848,1.1916 0.2964,1.1032 C0.212,1.0192 0.168,0.9044 0.168,0.7936 C0.168,0.6784 0.212,0.568 0.2964,0.4792 C0.4688,0.3076 0.752,0.3076 0.92,0.4792 Z" id="path-14"></path>
        <path d="M0.8768,0.5192 C0.9664,0.608 1.0136,0.7184 1.0136,0.8332 C1.0136,0.944 0.9664,1.0592 0.8768,1.1428 C0.7824,1.2316 0.66,1.2756 0.5416,1.2756 C0.4188,1.2756 0.3008,1.2316 0.2064,1.1428 C0.1164,1.0592 0.0692,0.944 0.0692,0.8332 C0.0692,0.7184 0.1164,0.608 0.2064,0.5192 C0.3904,0.3472 0.6924,0.3472 0.8768,0.5192 Z" id="path-16"></path>
        <path d="M0.8456,0.1596 C0.9296,0.2444 0.974,0.3596 0.974,0.4752 C0.974,0.5864 0.9296,0.702 0.8456,0.786 C0.7572,0.8752 0.6464,0.9152 0.5312,0.9152 C0.4164,0.9152 0.3056,0.8752 0.2168,0.786 C0.1328,0.702 0.0884,0.5864 0.0884,0.4752 C0.0884,0.3596 0.1328,0.2444 0.2168,0.1596 C0.3892,-0.0136 0.6732,-0.0136 0.8456,0.1596 Z" id="path-18"></path>
        <path d="M0.806,0.1956 C0.89,0.2848 0.9344,0.4 0.9344,0.5108 C0.9344,0.626 0.89,0.7416 0.806,0.826 C0.7172,0.9148 0.6064,0.9548 0.4916,0.9548 C0.3812,0.9548 0.266,0.9148 0.1816,0.826 C0.0932,0.7416 0.0488,0.626 0.0488,0.5108 C0.0488,0.4 0.0932,0.2848 0.1816,0.1956 C0.354,0.0272 0.6336,0.0272 0.806,0.1956 Z" id="path-20"></path>
        <path d="M1.158,0.2352 C1.2524,0.3244 1.2948,0.4396 1.2948,0.5504 C1.2948,0.666 1.2524,0.7812 1.158,0.8656 C1.068,0.9504 0.9452,0.9944 0.8224,0.9944 C0.7044,0.9944 0.5816,0.9504 0.492,0.8656 C0.3976,0.7812 0.3504,0.666 0.3504,0.5504 C0.3504,0.4396 0.3976,0.3244 0.492,0.2352 C0.6764,0.0668 0.9736,0.0668 1.158,0.2352 Z" id="path-22"></path>
        <path d="M1.1224,0.278 C1.2108,0.3664 1.2552,0.4768 1.2552,0.592 C1.2552,0.7068 1.2108,0.8176 1.1224,0.906 C1.0384,0.9896 0.9232,1.034 0.8124,1.034 C0.6972,1.034 0.5824,0.9896 0.498,0.906 C0.4092,0.8176 0.37,0.7068 0.37,0.592 C0.37,0.4768 0.4092,0.3664 0.498,0.278 C0.6712,0.1056 0.9496,0.1056 1.1224,0.278 Z" id="path-24"></path>
        <path d="M0.5024,0.2612 C0.6752,0.0888 0.9544,0.0888 1.1268,0.2612 C1.2112,0.3496 1.2552,0.46 1.2552,0.5752 C1.2552,0.6856 1.2112,0.8008 1.1268,0.8892 C1.0428,0.9732 0.9276,1.0172 0.8124,1.0172 C0.702,1.0172 0.5868,0.9732 0.5024,0.8892 C0.4144,0.8008 0.3696,0.6856 0.3696,0.5752 C0.3696,0.46 0.4144,0.3496 0.5024,0.2612 Z" id="path-26"></path>
        <path d="M0.4872,0.3008 C0.6712,0.1284 0.974,0.1284 1.158,0.3008 C1.248,0.3896 1.2948,0.5 1.2948,0.6148 C1.2948,0.7252 1.248,0.8404 1.158,0.9288 C1.0636,1.0132 0.9452,1.0568 0.8228,1.0568 C0.7,1.0568 0.5816,1.0132 0.4872,0.9288 C0.3976,0.8404 0.3504,0.7252 0.3504,0.6148 C0.3504,0.5 0.3976,0.3896 0.4872,0.3008 Z" id="path-28"></path>
        <path d="M0.1776,0.3404 C0.35,0.168 0.6336,0.168 0.806,0.3404 C0.8904,0.4248 0.9344,0.5396 0.9344,0.6544 C0.9344,0.7648 0.8904,0.8796 0.806,0.964 C0.7172,1.0528 0.6068,1.0964 0.492,1.0964 C0.3768,1.0964 0.266,1.0528 0.1776,0.964 C0.0936,0.8796 0.0492,0.7648 0.0492,0.6544 C0.0492,0.5396 0.0936,0.4248 0.1776,0.3404 Z" id="path-30"></path>
        <path d="M0.2172,0.3808 C0.3896,0.2076 0.6732,0.2076 0.846,0.3808 C0.9296,0.4656 0.974,0.5808 0.974,0.692 C0.974,0.8076 0.9296,0.9228 0.846,1.0076 C0.7572,1.0964 0.642,1.1364 0.5316,1.1364 C0.4164,1.1364 0.3056,1.0964 0.2172,1.0076 C0.1328,0.9228 0.0888,0.8076 0.0888,0.692 C0.0888,0.5808 0.1328,0.4656 0.2172,0.3808 Z" id="path-32"></path>
        <path d="M0.2064,0.4236 C0.3904,0.246 0.692,0.246 0.872,0.4236 C0.9664,0.5072 1.014,0.6224 1.014,0.7332 C1.014,0.8484 0.9664,0.9632 0.872,1.0476 C0.7824,1.1364 0.6596,1.176 0.5416,1.176 C0.4188,1.176 0.2956,1.1364 0.2064,1.0476 C0.112,0.9632 0.0692,0.8484 0.0692,0.7332 C0.0692,0.6224 0.112,0.5072 0.2064,0.4236 Z" id="path-34"></path>
        <path d="M0.2964,0.4596 C0.4692,0.2872 0.7476,0.2872 0.9208,0.4596 C1.0088,0.5476 1.0536,0.6628 1.0536,0.7736 C1.0536,0.8884 1.0088,0.9988 0.9208,1.0872 C0.8364,1.1712 0.7212,1.2156 0.6108,1.2156 C0.4952,1.2156 0.38,1.1712 0.2964,1.0872 C0.208,0.9988 0.168,0.8884 0.168,0.7736 C0.168,0.6628 0.208,0.5476 0.2964,0.4596 Z" id="path-36"></path>
        <path d="M0.3368,0.4992 C0.5104,0.3264 0.7904,0.3264 0.964,0.4992 C1.0532,0.5872 1.0932,0.698 1.0932,0.8132 C1.0932,0.928 1.0532,1.0388 0.964,1.1272 C0.8796,1.2108 0.764,1.2552 0.648,1.2552 C0.5368,1.2552 0.4208,1.2108 0.3368,1.1272 C0.2476,1.0388 0.2076,0.928 0.2076,0.8132 C0.2076,0.698 0.2476,0.5872 0.3368,0.4992 Z" id="path-38"></path>
        <path d="M0.33,0.4792 C0.5096,0.3076 0.8116,0.3076 0.9956,0.4792 C1.0856,0.568 1.1324,0.6784 1.1324,0.7936 C1.1324,0.9044 1.0856,1.0192 0.9956,1.1032 C0.9016,1.1916 0.7836,1.2356 0.6604,1.2356 C0.5424,1.2356 0.4196,1.1916 0.33,1.1032 C0.2356,1.0192 0.1884,0.9044 0.1884,0.7936 C0.1884,0.6784 0.2356,0.568 0.33,0.4792 Z" id="path-40"></path>
        <path d="M0.4152,0.5192 C0.5884,0.3472 0.8712,0.3472 1.0436,0.5192 C1.128,0.608 1.1724,0.7184 1.1724,0.8332 C1.1724,0.944 1.128,1.0592 1.0436,1.1428 C0.9552,1.2316 0.8444,1.2756 0.7296,1.2756 C0.6188,1.2756 0.504,1.2316 0.4152,1.1428 C0.3316,1.0592 0.2868,0.944 0.2868,0.8332 C0.2868,0.7184 0.3316,0.608 0.4152,0.5192 Z" id="path-42"></path>
        <path d="M0.4548,0.1596 C0.6276,-0.0136 0.9112,-0.0136 1.0836,0.1596 C1.168,0.2444 1.212,0.3596 1.212,0.4752 C1.212,0.5864 1.168,0.702 1.0836,0.786 C0.9948,0.8752 0.8844,0.9152 0.7692,0.9152 C0.6544,0.9152 0.5436,0.8752 0.4548,0.786 C0.3712,0.702 0.3264,0.5864 0.3264,0.4752 C0.3264,0.3596 0.3712,0.2444 0.4548,0.1596 Z" id="path-44"></path>
        <path d="M0.4356,0.1956 C0.608,0.0272 0.8876,0.0272 1.06,0.1956 C1.1484,0.2848 1.1928,0.4 1.1928,0.5108 C1.1928,0.626 1.1484,0.7416 1.06,0.826 C0.976,0.9148 0.8604,0.9548 0.75,0.9548 C0.6352,0.9548 0.5244,0.9148 0.4356,0.826 C0.3516,0.7416 0.3072,0.626 0.3072,0.5108 C0.3072,0.4 0.3516,0.2848 0.4356,0.1956 Z" id="path-46"></path>
        <path d="M0.1344,0.2352 C0.3068,0.0668 0.5856,0.0668 0.7588,0.2352 C0.8472,0.3244 0.8912,0.4396 0.8912,0.5504 C0.8912,0.666 0.8472,0.7812 0.7588,0.8656 C0.6744,0.9504 0.5592,0.9944 0.4488,0.9944 C0.3336,0.9944 0.2184,0.9504 0.1344,0.8656 C0.0456,0.7812 0.006,0.666 0.006,0.5504 C0.006,0.4396 0.0456,0.3244 0.1344,0.2352 Z" id="path-48"></path>
        <path d="M0.528,0.278 C0.712,0.1056 1.0096,0.1056 1.194,0.278 C1.2884,0.3664 1.3308,0.4768 1.3308,0.592 C1.3308,0.7068 1.2884,0.8176 1.194,0.906 C1.104,0.9896 0.9816,1.034 0.8588,1.034 C0.7408,1.034 0.6176,0.9896 0.528,0.906 C0.4336,0.8176 0.3864,0.7068 0.3864,0.592 C0.3864,0.4768 0.4336,0.3664 0.528,0.278 Z" id="path-50"></path>
        <path d="M7.004,0.199994567 C9.48,0.1976 11.7536,0.9904 13.8264,2.5756 L13.8264,2.5756 L11.1604,5.2312 C9.888,4.4072 8.5016,3.9944 7.0016,3.9976 C5.482,4.0008 4.098,4.4104 2.8476,5.2224 L2.8476,5.2224 L0.186,2.5708 C2.2428,0.9932 4.5152,0.2024 7.004,0.199994567 Z" id="path-52"></path>
        <path d="M2.334,0.374 L4.9776,3.026 C4.1488,4.2848 3.7304,5.6672 3.7276,7.1756 C3.7248,8.6636 4.1456,10.0476 4.9864,11.3284 L4.9864,11.3284 L2.3416,13.9812 C0.7792,11.9268 -0.0024,9.6592 -5.51021556e-06,7.1768 C0.0028,4.672 0.7808,2.404 2.334,0.374 L2.334,0.374 Z" id="path-54"></path>
        <path d="M11.1784,0.3812 L13.8264,3.0332 C11.7968,4.5992 9.5364,5.3924 7.0452,5.412 C4.5288,5.432 2.2428,4.6396 0.1864,3.0384 L0.1864,3.0384 L2.8308,0.3896 C4.104,1.2568 5.5036,1.6872 7.03,1.6772 C8.532,1.6668 9.9144,1.2336 11.1784,0.3812 L11.1784,0.3812 Z" id="path-56"></path>
        <path d="M2.8384,0.374 C4.4396,2.4264 5.232,4.7072 5.212,7.218 C5.1924,9.694 4.398,11.948 2.8304,13.9812 L2.8304,13.9812 L0.1692,11.3296 C0.99,10.0868 1.4112,8.7272 1.4288,7.2508 C1.4472,5.72 1.028,4.3128 0.174,3.0284 L0.174,3.0284 L2.8384,0.374 Z" id="path-58"></path>
        <path d="M2.1544,0.398 C3.1812,0.398 4.014,1.2308 4.014,2.2576 C4.014,3.284 3.1812,4.1168 2.1544,4.1168 C1.1272,4.1168 0.2948,3.284 0.2948,2.2576 C0.2948,1.2308 1.1272,0.398 2.1544,0.398 Z" id="path-60"></path>
        <path d="M1.9168,0.398 C2.9272,0.398 3.7468,1.2304 3.7468,2.2576 C3.7468,3.2844 2.9272,4.1168 1.9168,4.1168 C0.906,4.1168 0.0868,3.2844 0.0868,2.2576 C0.0868,1.2304 0.906,0.398 1.9168,0.398 Z" id="path-62"></path>
        <path d="M2.1836,0.19 C3.1944,0.19 4.014,1.0224 4.014,2.0496 C4.014,3.0764 3.1944,3.9088 2.1836,3.9088 C1.1732,3.9088 0.3536,3.0764 0.3536,2.0496 C0.3536,1.0224 1.1732,0.19 2.1836,0.19 Z" id="path-64"></path>
        <path d="M1.8872,0.19 C2.9144,0.19 3.7468,1.0092 3.7468,2.02 C3.7468,3.0308 2.9144,3.85 1.8872,3.85 C0.8604,3.85 0.028,3.0308 0.028,2.02 C0.028,1.0092 0.8604,0.19 1.8872,0.19 Z" id="path-66"></path>
        <path d="M49.916,0.08 L49.916,11.7196 L48.6356,11.7196 L48.5688,10.2232 C47.904,11.354 46.7068,11.886 45.4928,11.886 C43.148,11.886 41.3356,10.3396 41.3356,7.6292 C41.3356,4.8688 43.148,3.3724 45.476,3.3724 C46.64,3.3724 47.9704,3.9044 48.5524,5.0184 L48.5524,5.0184 L48.5524,0.0964 L49.8992,0.0964 L49.916,0.08 Z M25.4888,3.3392 C27.9996,3.3392 29.7624,5.1016 29.7624,7.646 C29.7624,10.14 27.9664,11.886 25.4888,11.886 C23.028,11.886 21.232,10.14 21.232,7.646 C21.232,5.1016 23.0444,3.3392 25.4888,3.3392 Z M4.5868,3.3392 C7.0976,3.3392 9.01,4.8856 8.694,8.1612 L8.694,8.1612 L1.71,8.1612 C1.86,9.6748 3.1068,10.6224 4.6868,10.6224 C5.618,10.6224 6.7488,10.2564 7.2972,9.5912 L7.2972,9.5912 L8.212,10.4228 L8.1952,10.4228 C7.364,11.4036 5.9336,11.886 4.6536,11.886 C2.1092,11.886 0.33,10.2064 0.33,7.596 C0.33,5.1184 2.1092,3.3392 4.5868,3.3392 Z M35.8484,3.3892 C37.9268,3.3892 39.4568,4.786 39.4568,7.1968 L39.4568,7.1968 L39.4568,11.7364 L38.0932,11.7364 L38.0932,7.2136 C38.0932,5.6336 37.162,4.6524 35.5988,4.6524 C34.1024,4.6692 33.0712,5.85 33.0712,7.33 L33.0712,7.33 L33.0712,11.7364 L31.7244,11.7364 L31.7244,3.5052 L32.9716,3.5052 L33.038,4.8188 C33.7532,3.838 34.7508,3.3892 35.8484,3.3892 Z M18.5548,3.3724 C19.27,3.3556 19.968,3.6052 20.4672,3.9876 L20.4672,3.9876 L19.852,5.1516 C19.4196,4.8524 18.9872,4.7024 18.422,4.7024 C17.108,4.7192 16.0104,5.6504 16.0104,7.1636 L16.0104,7.1636 L16.0104,11.7364 L14.6472,11.7364 L14.6472,3.522 L15.9108,3.522 L15.9276,3.5052 L16.0272,4.736 C16.5924,3.6716 17.6068,3.3724 18.5548,3.3724 Z M12.0532,0.0964 L12.0532,11.7364 L10.6896,11.7364 L10.6896,0.0964 L12.0532,0.0964 Z M25.5056,4.5864 C23.826,4.5864 22.5956,5.8168 22.5956,7.646 C22.5956,9.3752 23.8096,10.6056 25.4888,10.6056 C27.1848,10.6056 28.3988,9.3752 28.4152,7.646 C28.4152,5.8168 27.1516,4.5864 25.5056,4.5864 Z M45.584,4.636 L45.5364,4.6364 C43.966,4.6608 42.6992,5.7064 42.6992,7.6124 C42.6992,9.5084 43.9964,10.5888 45.5924,10.5888 C47.222,10.5888 48.5028,9.3916 48.5028,7.596 C48.5028,5.8364 47.2096,4.64 45.584,4.636 L45.584,4.636 Z M4.6204,4.5696 C3.19,4.5696 1.9428,5.434 1.71,7.014 L1.71,7.014 L7.3964,7.014 L7.394,6.9664 C7.3012,5.4112 6.2112,4.5696 4.6204,4.5696 Z" id="path-68"></path>
    </defs>
    <g id="Buy-webpage" stroke="none" stroke-width="1" fill="none" fill-rule="evenodd" opacity="0.648914426">
        <g id="Landing---eGold-Buy" transform="translate(-335.000000, -5289.000000)">
            <g id="Footer" transform="translate(0.000000, 4896.000000)">
                <g transform="translate(0.000000, 1.605009)" id="0">
                    <g transform="translate(249.000000, 246.394991)">
                        <g id="elrond-logo-black" transform="translate(86.000000, 145.000000)" filter="url(#filter-1)">
                            <g>
                                <g id="Group-3" transform="translate(18.400000, 4.000000)">
                                    <mask id="mask-3" fill="white">
                                        <use xlink:href="#path-2"></use>
                                    </mask>
                                    <g id="Clip-2"></g>
                                    <polygon id="Fill-1" fill="#000000" mask="url(#mask-3)" points="0.376 1.064 1.336 1.064 1.336 0.104 0.376 0.104"></polygon>
                                </g>
                                <g id="Group-6" transform="translate(17.600000, 5.200000)">
                                    <mask id="mask-5" fill="white">
                                        <use xlink:href="#path-4"></use>
                                    </mask>
                                    <g id="Clip-5"></g>
                                    <polygon id="Fill-4" fill="#000000" mask="url(#mask-5)" points="-0.024 1.064 0.936 1.064 0.936 0.152 -0.024 0.152"></polygon>
                                </g>
                                <g id="Group-9" transform="translate(16.000000, 6.400000)">
                                    <mask id="mask-7" fill="white">
                                        <use xlink:href="#path-6"></use>
                                    </mask>
                                    <g id="Clip-8"></g>
                                    <polygon id="Fill-7" fill="#000000" mask="url(#mask-7)" points="0.28 1.112 1.24 1.112 1.24 0.2 0.28 0.2"></polygon>
                                </g>
                                <g id="Group-12" transform="translate(14.800000, 7.600000)">
                                    <mask id="mask-9" fill="white">
                                        <use xlink:href="#path-8"></use>
                                    </mask>
                                    <g id="Clip-11"></g>
                                    <polygon id="Fill-10" fill="#000000" mask="url(#mask-9)" points="0.232 1.16 1.24 1.16 1.24 0.248 0.232 0.248"></polygon>
                                </g>
                                <g id="Group-15" transform="translate(13.600000, 8.800000)">
                                    <mask id="mask-11" fill="white">
                                        <use xlink:href="#path-10"></use>
                                    </mask>
                                    <g id="Clip-14"></g>
                                    <polygon id="Fill-13" fill="#000000" mask="url(#mask-11)" points="0.28 1.208 1.192 1.208 1.192 0.248 0.28 0.248"></polygon>
                                </g>
                                <g id="Group-18" transform="translate(12.400000, 10.000000)">
                                    <mask id="mask-13" fill="white">
                                        <use xlink:href="#path-12"></use>
                                    </mask>
                                    <g id="Clip-17"></g>
                                    <polygon id="Fill-16" fill="#000000" mask="url(#mask-13)" points="0.184 1.256 1.096 1.256 1.096 0.296 0.184 0.296"></polygon>
                                </g>
                                <g id="Group-21" transform="translate(10.000000, 12.400000)">
                                    <mask id="mask-15" fill="white">
                                        <use xlink:href="#path-14"></use>
                                    </mask>
                                    <g id="Clip-20"></g>
                                    <polygon id="Fill-19" fill="#000000" mask="url(#mask-15)" points="0.136 1.256 1.096 1.256 1.096 0.344 0.136 0.344"></polygon>
                                </g>
                                <g id="Group-24" transform="translate(8.800000, 13.600000)">
                                    <mask id="mask-17" fill="white">
                                        <use xlink:href="#path-16"></use>
                                    </mask>
                                    <g id="Clip-23"></g>
                                    <polygon id="Fill-22" fill="#000000" mask="url(#mask-17)" points="0.04 1.304 1.048 1.304 1.048 0.344 0.04 0.344"></polygon>
                                </g>
                                <g id="Group-27" transform="translate(7.600000, 15.200000)">
                                    <mask id="mask-19" fill="white">
                                        <use xlink:href="#path-18"></use>
                                    </mask>
                                    <g id="Clip-26"></g>
                                    <polygon id="Fill-25" fill="#000000" mask="url(#mask-19)" points="0.088 0.952 1 0.952 1 -0.008 0.088 -0.008"></polygon>
                                </g>
                                <g id="Group-30" transform="translate(6.400000, 16.400000)">
                                    <mask id="mask-21" fill="white">
                                        <use xlink:href="#path-20"></use>
                                    </mask>
                                    <g id="Clip-29"></g>
                                    <polygon id="Fill-28" fill="#000000" mask="url(#mask-21)" points="0.04 1 0.952 1 0.952 0.04 0.04 0.04"></polygon>
                                </g>
                                <g id="Group-33" transform="translate(4.800000, 17.600000)">
                                    <mask id="mask-23" fill="white">
                                        <use xlink:href="#path-22"></use>
                                    </mask>
                                    <g id="Clip-32"></g>
                                    <polygon id="Fill-31" fill="#000000" mask="url(#mask-23)" points="0.344 1 1.304 1 1.304 0.088 0.344 0.088"></polygon>
                                </g>
                                <g id="Group-36" transform="translate(3.600000, 18.800000)">
                                    <mask id="mask-25" fill="white">
                                        <use xlink:href="#path-24"></use>
                                    </mask>
                                    <g id="Clip-35"></g>
                                    <polygon id="Fill-34" fill="#000000" mask="url(#mask-25)" points="0.344 1.048 1.256 1.048 1.256 0.136 0.344 0.136"></polygon>
                                </g>
                                <g id="Group-39" transform="translate(3.600000, 4.000000)">
                                    <mask id="mask-27" fill="white">
                                        <use xlink:href="#path-26"></use>
                                    </mask>
                                    <g id="Clip-38"></g>
                                    <polygon id="Fill-37" fill="#000000" mask="url(#mask-27)" points="0.344 1.064 1.256 1.064 1.256 0.104 0.344 0.104"></polygon>
                                </g>
                                <g id="Group-42" transform="translate(4.800000, 5.200000)">
                                    <mask id="mask-29" fill="white">
                                        <use xlink:href="#path-28"></use>
                                    </mask>
                                    <g id="Clip-41"></g>
                                    <polygon id="Fill-40" fill="#000000" mask="url(#mask-29)" points="0.344 1.064 1.304 1.064 1.304 0.152 0.344 0.152"></polygon>
                                </g>
                                <g id="Group-45" transform="translate(6.400000, 6.400000)">
                                    <mask id="mask-31" fill="white">
                                        <use xlink:href="#path-30"></use>
                                    </mask>
                                    <g id="Clip-44"></g>
                                    <polygon id="Fill-43" fill="#000000" mask="url(#mask-31)" points="0.04 1.112 0.952 1.112 0.952 0.2 0.04 0.2"></polygon>
                                </g>
                                <g id="Group-48" transform="translate(7.600000, 7.600000)">
                                    <mask id="mask-33" fill="white">
                                        <use xlink:href="#path-32"></use>
                                    </mask>
                                    <g id="Clip-47"></g>
                                    <polygon id="Fill-46" fill="#000000" mask="url(#mask-33)" points="0.088 1.16 1 1.16 1 0.248 0.088 0.248"></polygon>
                                </g>
                                <g id="Group-51" transform="translate(8.800000, 8.800000)">
                                    <mask id="mask-35" fill="white">
                                        <use xlink:href="#path-34"></use>
                                    </mask>
                                    <g id="Clip-50"></g>
                                    <polygon id="Fill-49" fill="#000000" mask="url(#mask-35)" points="0.04 1.208 1.048 1.208 1.048 0.248 0.04 0.248"></polygon>
                                </g>
                                <g id="Group-54" transform="translate(10.000000, 10.000000)">
                                    <mask id="mask-37" fill="white">
                                        <use xlink:href="#path-36"></use>
                                    </mask>
                                    <g id="Clip-53"></g>
                                    <polygon id="Fill-52" fill="#000000" mask="url(#mask-37)" points="0.136 1.256 1.096 1.256 1.096 0.296 0.136 0.296"></polygon>
                                </g>
                                <g id="Group-57" transform="translate(11.200000, 11.200000)">
                                    <mask id="mask-39" fill="white">
                                        <use xlink:href="#path-38"></use>
                                    </mask>
                                    <g id="Clip-56"></g>
                                    <polygon id="Fill-55" fill="#000000" mask="url(#mask-39)" points="0.184 1.256 1.096 1.256 1.096 0.344 0.184 0.344"></polygon>
                                </g>
                                <g id="Group-60" transform="translate(12.400000, 12.400000)">
                                    <mask id="mask-41" fill="white">
                                        <use xlink:href="#path-40"></use>
                                    </mask>
                                    <g id="Clip-59"></g>
                                    <polygon id="Fill-58" fill="#000000" mask="url(#mask-41)" points="0.184 1.256 1.144 1.256 1.144 0.344 0.184 0.344"></polygon>
                                </g>
                                <g id="Group-63" transform="translate(13.600000, 13.600000)">
                                    <mask id="mask-43" fill="white">
                                        <use xlink:href="#path-42"></use>
                                    </mask>
                                    <g id="Clip-62"></g>
                                    <polygon id="Fill-61" fill="#000000" mask="url(#mask-43)" points="0.28 1.304 1.192 1.304 1.192 0.344 0.28 0.344"></polygon>
                                </g>
                                <g id="Group-66" transform="translate(14.800000, 15.200000)">
                                    <mask id="mask-45" fill="white">
                                        <use xlink:href="#path-44"></use>
                                    </mask>
                                    <g id="Clip-65"></g>
                                    <polygon id="Fill-64" fill="#000000" mask="url(#mask-45)" points="0.28 0.952 1.24 0.952 1.24 -0.008 0.28 -0.008"></polygon>
                                </g>
                                <g id="Group-69" transform="translate(16.000000, 16.400000)">
                                    <mask id="mask-47" fill="white">
                                        <use xlink:href="#path-46"></use>
                                    </mask>
                                    <g id="Clip-68"></g>
                                    <polygon id="Fill-67" fill="#000000" mask="url(#mask-47)" points="0.28 1 1.24 1 1.24 0.04 0.28 0.04"></polygon>
                                </g>
                                <g id="Group-72" transform="translate(17.600000, 17.600000)">
                                    <mask id="mask-49" fill="white">
                                        <use xlink:href="#path-48"></use>
                                    </mask>
                                    <g id="Clip-71"></g>
                                    <polygon id="Fill-70" fill="#000000" mask="url(#mask-49)" points="-0.024 1 0.936 1 0.936 0.088 -0.024 0.088"></polygon>
                                </g>
                                <g id="Group-75" transform="translate(18.400000, 18.800000)">
                                    <mask id="mask-51" fill="white">
                                        <use xlink:href="#path-50"></use>
                                    </mask>
                                    <g id="Clip-74"></g>
                                    <polygon id="Fill-73" fill="#000000" mask="url(#mask-51)" points="0.376 1.048 1.336 1.048 1.336 0.136 0.376 0.136"></polygon>
                                </g>
                                <g id="Group-78" transform="translate(4.800000, 0.000000)">
                                    <mask id="mask-53" fill="white">
                                        <use xlink:href="#path-52"></use>
                                    </mask>
                                    <g id="Clip-77"></g>
                                    <polygon id="Fill-76" fill="#000000" mask="url(#mask-53)" points="0.152 5.256 13.832 5.256 13.832 0.168 0.152 0.168"></polygon>
                                </g>
                                <g id="Group-81" transform="translate(0.000000, 4.800000)">
                                    <mask id="mask-55" fill="white">
                                        <use xlink:href="#path-54"></use>
                                    </mask>
                                    <g id="Clip-80"></g>
                                    <polygon id="Fill-79" fill="#000000" mask="url(#mask-55)" points="-0.04 13.992 5 13.992 5 0.36 -0.04 0.36"></polygon>
                                </g>
                                <g id="Group-84" transform="translate(4.800000, 18.400000)">
                                    <mask id="mask-57" fill="white">
                                        <use xlink:href="#path-56"></use>
                                    </mask>
                                    <g id="Clip-83"></g>
                                    <polygon id="Fill-82" fill="#000000" mask="url(#mask-57)" points="0.152 5.432 13.832 5.432 13.832 0.344 0.152 0.344"></polygon>
                                </g>
                                <g id="Group-87" transform="translate(18.400000, 4.800000)">
                                    <mask id="mask-59" fill="white">
                                        <use xlink:href="#path-58"></use>
                                    </mask>
                                    <g id="Clip-86"></g>
                                    <polygon id="Fill-85" fill="#000000" mask="url(#mask-59)" points="0.136 13.992 5.224 13.992 5.224 0.36 0.136 0.36"></polygon>
                                </g>
                                <g id="Group-90" transform="translate(19.200000, 19.200000)">
                                    <mask id="mask-61" fill="white">
                                        <use xlink:href="#path-60"></use>
                                    </mask>
                                    <g id="Clip-89"></g>
                                    <polygon id="Fill-88" fill="#000000" mask="url(#mask-61)" points="0.248 4.152 4.04 4.152 4.04 0.36 0.248 0.36"></polygon>
                                </g>
                                <g id="Group-93" transform="translate(0.400000, 19.200000)">
                                    <mask id="mask-63" fill="white">
                                        <use xlink:href="#path-62"></use>
                                    </mask>
                                    <g id="Clip-92"></g>
                                    <polygon id="Fill-91" fill="#000000" mask="url(#mask-63)" points="0.04 4.152 3.784 4.152 3.784 0.36 0.04 0.36"></polygon>
                                </g>
                                <g id="Group-96" transform="translate(19.200000, 0.400000)">
                                    <mask id="mask-65" fill="white">
                                        <use xlink:href="#path-64"></use>
                                    </mask>
                                    <g id="Clip-95"></g>
                                    <polygon id="Fill-94" fill="#000000" mask="url(#mask-65)" points="0.344 3.944 4.04 3.944 4.04 0.152 0.344 0.152"></polygon>
                                </g>
                                <g id="Group-99" transform="translate(0.400000, 0.400000)">
                                    <mask id="mask-67" fill="white">
                                        <use xlink:href="#path-66"></use>
                                    </mask>
                                    <g id="Clip-98"></g>
                                    <polygon id="Fill-97" fill="#000000" mask="url(#mask-67)" points="-0.008 3.896 3.784 3.896 3.784 0.152 -0.008 0.152"></polygon>
                                </g>
                                <g id="Group-102" transform="translate(29.200000, 6.000000)">
                                    <mask id="mask-69" fill="white">
                                        <use xlink:href="#path-68"></use>
                                    </mask>
                                    <g id="Clip-101"></g>
                                    <polygon id="Fill-100" fill="#000000" mask="url(#mask-69)" points="0.328 11.928 49.96 11.928 49.96 0.072 0.328 0.072"></polygon>
                                </g>
                            </g>
                        </g>
                    </g>
                </g>
            </g>
        </g>
    </g>
</svg>