<?xml version="1.0" encoding="UTF-8"?>
<svg width="18px" height="19px" viewBox="0 0 18 19" version="1.1" xmlns="http://www.w3.org/2000/svg" xmlns:xlink="http://www.w3.org/1999/xlink">
    <title>logo-linkedin</title>
    <g id="Page-1" stroke="none" stroke-width="1" fill="none" fill-rule="evenodd">
        <g id="Landing-3-Copy-4" transform="translate(-371.000000, -11342.000000)" fill="#FFFFFF" fill-rule="nonzero">
            <g id="Footer" transform="translate(0.000000, 11028.000000)">
                <g transform="translate(1.000000, 1.605009)" id="logo-linkedin">
                    <g transform="translate(370.000000, 313.000000)">
                        <path d="M17.25,0 L0.75,0 C0.3375,0 0,0.3375 0,0.75 L0,17.25 C0,17.6625 0.3375,18 0.75,18 L17.25,18 C17.6625,18 18,17.6625 18,17.25 L18,0.75 C18,0.3375 17.6625,0 17.25,0 Z M5.325,15.3375 L2.6625,15.3375 L2.6625,6.75 L5.325,6.75 L5.325,15.3375 Z M4.0125,5.5875 C3.15,5.5875 2.475,4.9125 2.475,4.05 C2.475,3.1875 3.15,2.5125 4.0125,2.5125 C4.875,2.5125 5.55,3.1875 5.55,4.05 C5.55,4.875 4.875,5.5875 4.0125,5.5875 Z M15.3375,15.3375 L12.675,15.3375 L12.675,11.175 C12.675,10.1625 12.675,8.8875 11.2875,8.8875 C9.9,8.8875 9.675,9.975 9.675,11.1 L9.675,15.3375 L7.0125,15.3375 L7.0125,6.75 L9.5625,6.75 L9.5625,7.9125 L9.6,7.9125 C9.9375,7.2375 10.8375,6.525 12.1125,6.525 C14.8125,6.525 15.3,8.2875 15.3,10.6125 L15.3,15.3375 L15.3375,15.3375 Z" id="Shape"></path>
                    </g>
                </g>
            </g>
        </g>
    </g>
</svg>