<?xml version="1.0" encoding="UTF-8"?>
<svg width="17px" height="16px" viewBox="0 0 17 16" version="1.1" xmlns="http://www.w3.org/2000/svg" xmlns:xlink="http://www.w3.org/1999/xlink">
    <title>logo-twitter</title>
    <g id="Page-1" stroke="none" stroke-width="1" fill="none" fill-rule="evenodd">
        <g id="Landing-3-Copy-4" transform="translate(-247.000000, -11344.000000)" fill="#FFFFFF">
            <g id="Footer" transform="translate(0.000000, 11028.000000)">
                <g transform="translate(1.000000, 1.605009)" id="logo-twitter">
                    <g transform="translate(246.000000, 315.000000)">
                        <path d="M17,1.73969072 C16.3625,2.04896907 15.6895833,2.24226804 14.98125,2.35824742 C15.6895833,1.8943299 16.25625,1.15979381 16.5041667,0.270618557 C15.83125,0.695876289 15.0875,1.00515464 14.2729167,1.19845361 C13.6354167,0.463917526 12.7145833,0 11.7229167,0 C9.81041667,0 8.25208333,1.70103093 8.25208333,3.78865979 C8.25208333,4.09793814 8.2875,4.3685567 8.35833333,4.63917526 C5.48958333,4.48453608 2.90416667,2.97680412 1.16875,0.657216495 C0.885416667,1.2371134 0.708333333,1.8556701 0.708333333,2.55154639 C0.708333333,3.86597938 1.31041667,5.0257732 2.26666667,5.72164948 C1.7,5.68298969 1.16875,5.52835052 0.672916667,5.25773196 C0.672916667,5.25773196 0.672916667,5.29639175 0.672916667,5.29639175 C0.672916667,7.15206186 1.87708333,8.69845361 3.47083333,9.04639175 C3.1875,9.12371134 2.86875,9.16237113 2.55,9.16237113 C2.3375,9.16237113 2.08958333,9.12371134 1.87708333,9.08505155 C2.3375,10.5927835 3.6125,11.7139175 5.13541667,11.7139175 C3.93125,12.7190722 2.44375,13.3376289 0.814583333,13.3376289 C0.53125,13.3376289 0.247916667,13.3376289 0,13.2989691 C1.55833333,14.3814433 3.36458333,15 5.34791667,15 C11.7583333,15 15.2645833,9.20103093 15.2645833,4.17525773 C15.2645833,4.02061856 15.2645833,3.82731959 15.2645833,3.67268041 C15.9375,3.17010309 16.5395833,2.5128866 17,1.73969072 Z" id="Path"></path>
                    </g>
                </g>
            </g>
        </g>
    </g>
</svg>