<?xml version="1.0" encoding="UTF-8"?>
<svg width="23px" height="16px" viewBox="0 0 23 16" version="1.1" xmlns="http://www.w3.org/2000/svg" xmlns:xlink="http://www.w3.org/1999/xlink">
    <title>Youtube</title>
    <g id="Contact-us" stroke="none" stroke-width="1" fill="none" fill-rule="evenodd">
        <g id="Maiar-website---Contact-us" transform="translate(-455.000000, -1565.000000)" fill="#FFFFFF">
            <g id="Footer" transform="translate(0.000000, 1214.000000)">
                <g transform="translate(0.000000, 1.605009)" id="0">
                    <g transform="translate(249.000000, 246.394991)">
                        <g id="Social" transform="translate(0.000000, 102.000000)">
                            <g id="yt_icon_pms_mono_dark" transform="translate(206.000000, 1.000000)">
                                <path d="M9.14772727,11.3766452 L9.14772727,4.62335484 L15.1590909,8.00012903 L9.14772727,11.3766452 Z M22.5193523,2.49845161 C22.2548523,1.51496774 21.4754659,0.740516129 20.4859432,0.477677419 C18.6923352,0 11.5,0 11.5,0 C11.5,0 4.30766477,0 2.51405682,0.477677419 C1.52453409,0.740516129 0.745147727,1.51496774 0.480647727,2.49845161 C0,4.28090323 0,8 0,8 C0,8 0,11.7189677 0.480647727,13.5015484 C0.745147727,14.4850323 1.52453409,15.2594839 2.51405682,15.5224516 C4.30766477,16 11.5,16 11.5,16 C11.5,16 18.6923352,16 20.4859432,15.5224516 C21.4754659,15.2594839 22.2548523,14.4850323 22.5193523,13.5015484 C23,11.7189677 23,8 23,8 C23,8 23,4.28090323 22.5193523,2.49845161 L22.5193523,2.49845161 Z" id="Fill-1"></path>
                            </g>
                        </g>
                    </g>
                </g>
            </g>
        </g>
    </g>
</svg>